# xmcd CD database file
#
# Track frame offsets:
#	150
#	24215
#	27106
#	39780
#	62601
#	71979
#	82056
#	102503
#	121004
#	137068
#	182381
#	184213
#	191066
#	204653
#	206433
#	223523
#	230688
#	237807
#	248941
#	249882
#	268686
#	280635
#	301099
#	305379
#	321008
#
# Disc length: 4502 seconds
#
# Revision: 15
# Processed by: cddbd v1.5.2PL0 Copyright (c) Steve Scherf et al.
# Submitted via: CDex 1.70beta2
#
DISCID=58119419
DTITLE=THE WHO - TOMMY
DYEAR=1969
DGENRE=Rock
TTITLE0=Overture
TTITLE1=It's A Boy
TTITLE2=1921
TTITLE3=Amazing Journey
TTITLE4=Sparks
TTITLE5=Eyesight To The Blind (The Hawker)
TTITLE6=Christmas
TTITLE7=Cousin Kevin
TTITLE8=The Acid Queen
TTITLE9=Underture
TTITLE10=Do You Think It's Alright?
TTITLE11=Fiddle About
TTITLE12=Pinball Wizard
TTITLE13=There's A Doctor
TTITLE14=Go To The Mirror!
TTITLE15=Tommy, Can You Hear Me?
TTITLE16=Smash The Mirror
TTITLE17=Sensation
TTITLE18=Miracle Cure
TTITLE19=Sally Simpson
TTITLE20=I'm Free
TTITLE21=Welcome
TTITLE22=Tommy's Holiday Camp
TTITLE23=We're Not Gonna Take It
TTITLE24=See Me Feel Me - Listening To You
EXTD=YEAR: 1969
EXTT0=
EXTT1=
EXTT2=
EXTT3=
EXTT4=
EXTT5=
EXTT6=
EXTT7=
EXTT8=
EXTT9=
EXTT10=
EXTT11=
EXTT12=
EXTT13=
EXTT14=
EXTT15=
EXTT16=
EXTT17=
EXTT18=
EXTT19=
EXTT20=
EXTT21=
EXTT22=
EXTT23=
EXTT24=
PLAYORDER=
